<?xml version="1.0" standalone="no"?>
<!DOCTYPE svg PUBLIC "-//W3C//DTD SVG 20010904//EN"
 "http://www.w3.org/TR/2001/REC-SVG-20010904/DTD/svg10.dtd">
<svg version="1.0" xmlns="http://www.w3.org/2000/svg"
 width="2879.000000pt" height="2304.000000pt" viewBox="0 0 2879.000000 2304.000000"
 preserveAspectRatio="xMidYMid meet">

<g transform="translate(0.000000,2304.000000) scale(0.100000,-0.100000)"
fill="#000000" stroke="none">
<path d="M15773 22493 c-23 -22 -23 -24 -23 -337 0 -311 0 -315 -22 -330 -18
-13 -61 -14 -303 -9 -294 6 -345 1 -364 -35 -5 -10 -10 -962 -10 -2271 -1
-1610 -5 -2259 -13 -2268 -8 -10 -80 -13 -339 -13 -316 0 -330 -1 -349 -20
-19 -19 -20 -33 -20 -344 0 -273 -2 -325 -15 -336 -11 -9 -128 -11 -504 -9
-475 4 -489 3 -511 -16 -21 -19 -22 -22 -19 -332 3 -275 1 -315 -13 -329 -14
-14 -76 -16 -513 -19 -441 -3 -500 -6 -514 -20 -14 -14 -16 -56 -16 -334 0
-251 -3 -321 -13 -334 -12 -15 -45 -16 -327 -10 l-313 6 -32 -32 -32 -32 3
-315 c4 -303 3 -316 -15 -330 -27 -20 -1303 -21 -1329 -1 -15 11 -17 47 -19
334 -3 313 -4 323 -24 344 -21 20 -28 21 -305 18 -156 -1 -301 -2 -323 -2 -69
2 -68 -6 -66 341 l1 310 -23 27 -24 27 -644 -1 c-582 0 -646 1 -662 16 -17 15
-18 40 -18 324 l0 308 -24 28 -24 28 -299 3 c-255 3 -300 6 -315 19 -16 15
-18 43 -18 323 0 288 -1 309 -19 331 l-19 24 -674 5 c-370 3 -687 2 -704 -3
-63 -15 -59 85 -62 -1409 l-3 -1368 25 -25 c20 -20 36 -25 78 -26 29 -1 168
-5 308 -8 l254 -6 13 -25 c9 -18 13 -104 13 -327 0 -290 1 -304 20 -323 19
-19 34 -20 518 -20 273 -1 579 0 679 0 138 1 183 -2 190 -12 4 -7 8 -153 8
-325 0 -312 0 -312 23 -335 23 -23 23 -23 338 -23 304 0 316 -1 331 -20 12
-17 14 -44 9 -165 -3 -80 -7 -223 -8 -318 l-1 -173 27 -27 27 -27 315 0 c268
0 316 -2 325 -15 7 -10 9 -112 5 -306 -6 -303 -1 -355 34 -374 11 -6 140 -10
333 -10 291 0 315 -1 330 -18 15 -16 17 -54 17 -328 0 -264 2 -313 16 -332 15
-22 16 -22 332 -22 262 0 321 -3 338 -15 21 -14 21 -19 16 -327 -4 -304 -4
-314 16 -338 l20 -25 330 0 c182 0 333 -3 337 -7 4 -4 7 -629 6 -1389 l-2
-1382 22 -23 22 -24 668 0 668 0 28 24 28 24 0 299 c0 164 -4 311 -8 326 -15
53 -45 58 -375 57 -328 -2 -321 -3 -323 64 -3 197 -1 607 4 613 4 3 153 5 332
4 l324 -2 27 26 26 27 -7 312 c-7 285 -6 314 10 329 15 15 50 17 339 17 289 0
325 2 337 17 11 13 14 80 14 338 0 258 3 325 14 338 12 15 47 17 320 17 248 0
311 -3 326 -14 19 -14 20 -28 16 -334 -3 -383 -13 -356 125 -365 49 -4 198 -6
331 -6 132 1 246 -2 252 -5 8 -5 11 -301 11 -1030 0 -1020 0 -1023 21 -1050
l20 -26 679 0 c653 0 679 1 701 19 l24 19 -1 318 -1 317 -28 25 -29 24 -313
-4 c-255 -4 -315 -2 -324 9 -9 10 -13 397 -16 1398 -5 1346 -5 1385 13 1386
11 0 157 1 325 2 242 2 309 5 322 16 15 12 17 49 17 352 0 259 3 340 13 346 6
4 164 8 349 8 310 0 339 1 355 18 17 17 18 51 19 504 2 456 3 488 20 500 14
10 88 13 329 13 305 0 312 0 331 21 18 21 19 55 19 1234 0 1012 2 1215 14
1228 12 15 47 17 325 17 229 0 315 -3 324 -12 9 -9 12 -98 12 -337 1 -275 3
-329 16 -346 14 -19 26 -20 332 -20 174 0 329 4 343 8 15 4 30 14 33 23 4 10
7 319 7 687 0 667 0 670 -21 691 -21 21 -23 21 -688 18 -435 -2 -672 1 -682 7
-13 9 -16 99 -20 678 -4 514 -2 671 7 682 10 12 208 14 1392 12 l1380 -3 26
26 25 25 0 319 c0 294 -1 322 -18 342 l-18 22 -1032 2 c-793 1 -1034 4 -1043
13 -9 9 -12 95 -13 327 -1 273 1 317 15 331 14 14 190 16 1731 18 l1717 2 28
21 28 21 3 1544 c1 849 0 1554 -3 1566 -3 13 -17 30 -31 40 -23 15 -59 16
-325 15 -298 -2 -331 1 -351 32 -4 6 -8 147 -8 312 0 272 -2 304 -17 323 l-18
22 -2785 2 -2785 2 -22 -22z m1375 -1076 c7 -8 11 -117 11 -319 -1 -255 -3
-309 -15 -319 -10 -8 -102 -13 -315 -16 -263 -3 -305 -2 -326 12 l-24 16 3
303 c2 239 6 306 17 319 12 15 48 17 326 17 242 0 315 -3 323 -13z m4224 -9
c15 -11 17 -50 20 -311 2 -285 2 -300 -17 -313 -15 -11 -76 -14 -309 -14 -255
0 -292 2 -308 17 -17 15 -18 38 -18 313 0 217 3 299 12 308 18 18 598 17 620
0z"/>
<path d="M8478 9820 c-1094 -5 -1158 -6 -1175 -23 -16 -15 -18 -37 -18 -167 0
-130 2 -152 18 -167 17 -17 86 -18 1413 -18 l1396 0 19 24 c17 20 19 40 19
157 0 76 -5 143 -11 157 -20 43 -45 47 -282 45 -122 -2 -743 -5 -1379 -8z"/>
<path d="M5844 9809 c-18 -5 -35 -17 -39 -27 -4 -9 -6 -75 -6 -147 1 -110 4
-134 20 -155 l18 -25 386 -3 386 -2 17 25 c13 20 15 47 12 159 -4 157 -7 164
-90 178 -67 11 -662 8 -704 -3z"/>
<path d="M17212 9803 c-46 -9 -54 -40 -50 -188 3 -122 5 -138 22 -151 17 -12
410 -14 2780 -13 1519 1 2772 4 2786 8 38 11 48 56 41 199 -5 107 -9 126 -25
138 -17 12 -411 14 -2775 13 -1516 -1 -2766 -4 -2779 -6z"/>
<path d="M4665 8546 c-24 -25 -25 -28 -25 -169 0 -187 -11 -177 188 -177 139
0 152 2 162 19 5 11 10 84 10 164 0 188 7 181 -176 185 -131 3 -134 3 -159
-22z"/>
<path d="M5669 8558 c-33 -12 -41 -55 -37 -201 3 -123 5 -140 22 -153 17 -12
242 -14 1532 -11 1496 2 1512 2 1534 22 21 19 22 25 18 163 -4 126 -7 145 -24
163 -20 20 -35 20 -1523 22 -826 1 -1511 -1 -1522 -5z"/>
<path d="M9437 8418 c-31 -24 -37 -65 -30 -204 4 -90 11 -140 19 -149 16 -16
561 -28 1046 -23 298 3 329 5 345 21 15 15 19 39 21 139 4 140 -2 182 -29 209
-18 18 -39 19 -687 19 -519 0 -672 -3 -685 -12z"/>
<path d="M21818 7703 c-25 -3 -44 -13 -58 -30 -18 -23 -20 -40 -20 -160 0
-130 1 -135 25 -159 25 -25 26 -25 176 -22 135 3 152 5 165 22 11 15 14 56 14
166 0 189 4 185 -154 186 -61 1 -128 -1 -148 -3z"/>
<path d="M7323 7360 c-39 -16 -45 -42 -41 -200 2 -125 6 -152 20 -167 16 -16
67 -17 690 -17 522 0 678 2 695 12 36 20 39 45 34 273 -2 111 71 100 -701 104
-371 2 -685 0 -697 -5z"/>
<path d="M4640 4824 c-52 -25 -416 -386 -446 -444 -18 -34 -19 -91 -19 -1597
l0 -1561 36 -51 c60 -86 372 -396 424 -420 44 -21 50 -21 852 -21 804 0 807 0
851 21 74 36 417 393 449 467 11 27 13 276 11 1570 l-3 1537 -22 45 c-13 25
-49 72 -80 106 -32 33 -114 120 -183 194 -87 93 -138 139 -170 154 -44 21 -55
21 -850 21 -801 0 -805 0 -850 -21z m1191 -915 c35 -28 69 -63 76 -78 9 -20
12 -274 13 -1054 0 -1147 5 -1074 -71 -1124 l-43 -28 -311 -4 c-352 -4 -351
-4 -405 71 l-30 41 0 1036 c0 992 1 1037 19 1064 32 49 101 116 124 120 12 2
144 5 293 6 l271 1 64 -51z"/>
<path d="M13044 4804 l-34 -35 0 -1980 c0 -2166 -4 -2027 56 -2049 39 -15
2176 -13 2209 2 14 6 35 26 46 45 20 31 20 45 17 386 -3 322 -5 355 -21 381
-38 57 -29 56 -736 56 -577 0 -651 2 -665 16 -14 13 -16 59 -16 348 0 312 1
334 19 350 17 15 63 17 524 16 279 -1 511 1 517 5 6 3 19 24 30 45 19 37 20
60 20 401 0 321 -2 364 -17 390 -9 15 -24 31 -32 35 -9 3 -244 5 -522 4 -460
-1 -508 0 -523 16 -15 15 -16 50 -14 355 2 261 6 341 16 351 10 10 143 13 650
15 350 1 652 2 670 2 23 1 43 10 63 30 l29 29 0 369 c0 339 -2 370 -18 396
-40 60 42 56 -1146 57 l-1089 0 -33 -36z"/>
<path d="M16022 4820 c-49 -46 -47 52 -47 -2047 l0 -1972 21 -28 c38 -51 65
-54 447 -51 l349 3 34 37 34 38 0 704 c0 643 1 705 17 717 11 10 44 14 110 13
114 -1 128 -11 169 -118 15 -39 48 -127 74 -196 42 -110 112 -281 234 -570 19
-47 65 -166 102 -265 79 -217 118 -298 156 -330 l30 -25 428 0 428 0 31 26
c20 17 31 35 31 52 0 14 -25 91 -56 171 -31 81 -67 173 -80 206 -12 33 -63
150 -112 260 -170 381 -322 765 -322 813 0 43 40 92 204 247 92 88 154 155
166 181 20 41 21 57 18 856 l-3 815 -36 44 c-60 72 -365 373 -410 405 l-42 29
-977 3 c-971 2 -976 2 -998 -18z m1475 -886 c15 -11 42 -40 58 -63 l30 -43 0
-296 c0 -328 -1 -331 -65 -386 l-32 -26 -291 0 c-161 0 -298 4 -305 8 -27 18
-32 86 -32 433 0 268 3 359 13 372 10 14 38 17 202 20 354 6 390 5 422 -19z"/>
<path d="M19228 4825 c-14 -8 -36 -30 -47 -48 l-21 -34 0 -1973 0 -1973 21
-23 c41 -43 56 -45 442 -42 366 3 366 3 389 26 l23 23 3 717 c2 658 4 718 19
730 22 16 180 16 213 -1 14 -7 34 -30 44 -52 26 -54 135 -332 148 -375 6 -19
16 -46 24 -60 38 -70 146 -333 220 -535 144 -396 156 -422 209 -455 33 -20 44
-21 465 -18 l432 3 19 24 c26 32 24 67 -12 152 -16 41 -36 92 -43 114 -33 99
-243 607 -277 668 -29 52 -219 551 -219 574 0 23 33 61 181 207 103 102 187
193 195 212 12 28 14 172 14 841 0 785 -1 808 -20 847 -21 43 -332 367 -410
427 l-44 34 -971 2 c-832 2 -974 0 -997 -12z m1483 -921 c75 -75 77 -87 72
-378 -3 -138 -9 -267 -14 -286 -5 -21 -27 -54 -54 -80 l-46 -45 -302 3 c-263
3 -304 6 -314 20 -10 12 -14 95 -15 321 -4 492 -5 481 12 492 9 6 130 8 313 6
l298 -3 50 -50z"/>
<path d="M22775 4818 c-55 -29 -83 -54 -272 -250 -91 -94 -172 -187 -182 -207
-15 -33 -16 -167 -19 -1531 -2 -822 0 -1523 3 -1558 6 -57 12 -69 58 -125 86
-104 349 -367 392 -392 l40 -24 822 -2 c769 -2 823 -1 850 15 15 10 121 112
235 227 160 161 210 217 218 246 8 27 10 487 8 1584 l-3 1545 -27 40 c-14 21
-109 123 -210 226 -131 135 -196 193 -228 207 -44 20 -64 21 -845 20 -792 0
-800 0 -840 -21z m1187 -915 c27 -26 53 -55 58 -63 14 -26 24 -2072 11 -2113
-7 -20 -30 -52 -52 -71 l-39 -36 -326 0 c-314 0 -327 1 -355 21 -67 47 -63
-25 -66 1124 -2 1004 -1 1040 17 1070 29 47 94 105 126 114 16 4 152 6 303 5
l274 -3 49 -48z"/>
<path d="M25573 4806 l-37 -34 -6 -148 c-4 -82 -8 -974 -9 -1982 l-3 -1833 39
-38 38 -38 351 -7 c193 -4 357 -5 365 -2 8 2 26 7 41 10 15 4 35 20 47 40 21
33 21 42 21 729 l0 697 23 15 c54 35 192 31 228 -8 11 -12 27 -46 36 -76 8
-30 29 -84 45 -120 16 -36 54 -129 85 -206 30 -77 86 -214 125 -305 38 -91 99
-244 134 -340 35 -96 68 -182 73 -191 5 -9 14 -34 20 -55 6 -22 25 -64 43 -94
55 -92 40 -89 508 -90 255 -1 415 2 431 9 32 12 59 47 59 78 0 12 -23 77 -51
145 -70 170 -101 247 -148 363 -21 55 -54 132 -71 170 -17 39 -61 144 -96 235
-36 91 -78 194 -93 230 -16 36 -41 94 -56 130 -15 36 -33 80 -41 98 -8 18 -14
53 -14 77 0 45 0 45 183 228 156 156 185 190 196 228 9 33 11 232 9 829 -3
749 -4 787 -22 820 -16 30 -159 183 -353 377 -28 28 -69 61 -92 72 -40 21 -50
21 -1006 21 l-965 0 -37 -34z m1523 -903 c24 -27 49 -65 55 -86 6 -24 8 -139
5 -314 l-5 -276 -28 -35 c-59 -73 -48 -70 -358 -75 -154 -2 -290 -1 -302 4
-41 15 -45 56 -41 439 4 274 8 362 17 374 12 14 54 16 313 16 l300 0 44 -47z"/>
<path d="M707 4821 c-81 -6 -89 -9 -120 -39 l-32 -32 0 -1233 0 -1232 27 -45
c61 -103 394 -435 454 -454 11 -3 258 -8 548 -11 290 -2 531 -7 536 -10 6 -4
10 -195 10 -490 l0 -484 24 -28 24 -28 387 -3 c360 -2 389 -1 407 15 49 44 49
44 48 535 -1 398 1 463 14 476 11 12 45 15 150 17 107 1 140 5 160 18 51 34
53 49 58 387 3 173 2 340 -1 370 -6 53 -7 56 -54 81 -46 25 -54 26 -170 21
-110 -4 -124 -3 -139 14 -16 18 -17 98 -20 1046 -3 1023 -3 1027 -24 1055 -43
58 -45 58 -439 55 -382 -3 -389 -4 -415 -52 -7 -13 -10 -347 -10 -1047 0 -932
-1 -1030 -16 -1051 l-16 -24 -278 4 c-263 3 -280 4 -306 24 -15 11 -37 33 -48
48 -21 27 -21 37 -26 1033 l-5 1005 -33 29 -32 29 -244 0 c-134 0 -263 2 -287
4 -24 2 -83 1 -132 -3z"/>
<path d="M7723 4820 c-92 -4 -115 -8 -133 -25 -50 -44 -48 -2 -49 -1275 0
-712 4 -1209 9 -1231 15 -56 65 -118 247 -303 115 -116 186 -181 217 -195 45
-22 47 -22 558 -20 282 2 519 0 526 -4 9 -6 12 -114 12 -482 0 -346 3 -481 12
-500 25 -55 37 -56 441 -56 l372 0 22 28 c13 16 26 44 29 63 4 18 4 232 0 475
-6 371 -5 443 7 459 13 17 29 19 158 21 241 2 231 -19 227 462 -4 441 9 417
-217 414 -98 -1 -141 2 -154 11 -16 12 -18 71 -20 1053 -2 985 -3 1041 -20
1067 -10 14 -26 30 -35 33 -9 4 -181 9 -380 10 l-364 3 -36 -33 -37 -33 -5
-1036 c-5 -976 -6 -1036 -23 -1053 -16 -16 -44 -18 -275 -21 -141 -2 -267 -1
-279 3 -31 7 -83 54 -95 84 -6 17 -9 370 -8 1014 1 906 0 989 -16 1015 -33 56
-37 57 -319 57 -143 0 -310 -2 -372 -5z"/>
</g>
</svg>
